G75*
G70*
%OFA0B0*%
%FSLAX24Y24*%
%IPPOS*%
%LPD*%
%AMOC8*
5,1,8,0,0,1.08239X$1,22.5*
%
%ADD10C,0.1266*%
%ADD11R,0.1181X0.0728*%
%ADD12R,0.1181X0.0374*%
%ADD13C,0.0320*%
D10*
X073949Y006610D03*
X073949Y011110D03*
X068949Y015110D03*
X068949Y020110D03*
X073949Y024610D03*
X073949Y028610D03*
X168949Y019610D03*
X168949Y015110D03*
X173949Y011110D03*
X173949Y006610D03*
X173949Y024110D03*
X173949Y028610D03*
D11*
X178949Y026307D03*
X188949Y026307D03*
X198949Y026307D03*
X208949Y026307D03*
X218949Y026307D03*
X168949Y026307D03*
X158949Y026307D03*
X148949Y026307D03*
X138949Y026307D03*
X128949Y026307D03*
X118949Y026307D03*
X108949Y026307D03*
X098949Y026307D03*
X088949Y026307D03*
X078949Y026307D03*
X068949Y026307D03*
X058949Y026307D03*
X048949Y026307D03*
X038949Y026307D03*
X028949Y026307D03*
X033949Y017147D03*
X023949Y017147D03*
X043949Y017147D03*
X053949Y017147D03*
X063949Y017147D03*
X073949Y017147D03*
X083949Y017147D03*
X093949Y017147D03*
X103949Y017147D03*
X113949Y017147D03*
X123949Y017147D03*
X133949Y017147D03*
X143949Y017147D03*
X153949Y017147D03*
X163949Y017147D03*
X173949Y017147D03*
X183949Y017147D03*
X193949Y017147D03*
X203949Y017147D03*
X213949Y017147D03*
X218949Y008487D03*
X208949Y008487D03*
X198949Y008487D03*
X188949Y008487D03*
X178949Y008487D03*
X168949Y008487D03*
X158949Y008487D03*
X148949Y008487D03*
X138949Y008487D03*
X128949Y008487D03*
X118949Y008487D03*
X108949Y008487D03*
X098949Y008487D03*
X088949Y008487D03*
X078949Y008487D03*
X068949Y008487D03*
X058949Y008487D03*
X048949Y008487D03*
X038949Y008487D03*
X028949Y008487D03*
D12*
X028949Y009235D03*
X038949Y009235D03*
X048949Y009235D03*
X058949Y009235D03*
X068949Y009235D03*
X078949Y009235D03*
X088949Y009235D03*
X098949Y009235D03*
X108949Y009235D03*
X118949Y009235D03*
X128949Y009235D03*
X138949Y009235D03*
X148949Y009235D03*
X158949Y009235D03*
X168949Y009235D03*
X178949Y009235D03*
X188949Y009235D03*
X198949Y009235D03*
X208949Y009235D03*
X218949Y009235D03*
X213949Y017895D03*
X203949Y017895D03*
X193949Y017895D03*
X183949Y017895D03*
X173949Y017895D03*
X163949Y017895D03*
X153949Y017895D03*
X143949Y017895D03*
X133949Y017895D03*
X123949Y017895D03*
X113949Y017895D03*
X103949Y017895D03*
X093949Y017895D03*
X083949Y017895D03*
X073949Y017895D03*
X063949Y017895D03*
X053949Y017895D03*
X043949Y017895D03*
X033949Y017895D03*
X023949Y017895D03*
X028949Y027055D03*
X038949Y027055D03*
X048949Y027055D03*
X058949Y027055D03*
X068949Y027055D03*
X078949Y027055D03*
X088949Y027055D03*
X098949Y027055D03*
X108949Y027055D03*
X118949Y027055D03*
X128949Y027055D03*
X138949Y027055D03*
X148949Y027055D03*
X158949Y027055D03*
X168949Y027055D03*
X178949Y027055D03*
X188949Y027055D03*
X198949Y027055D03*
X208949Y027055D03*
X218949Y027055D03*
D13*
X027699Y008360D02*
X027699Y005610D01*
X120199Y005610D01*
X120199Y008610D01*
X119799Y008609D01*
X119799Y008509D01*
X118971Y008509D01*
X118971Y008465D01*
X118971Y007863D01*
X119565Y007863D01*
X119615Y007873D01*
X119663Y007893D01*
X119705Y007921D01*
X119741Y007957D01*
X119770Y008000D01*
X119789Y008047D01*
X119799Y008098D01*
X119799Y008465D01*
X118971Y008465D01*
X118927Y008465D01*
X118927Y007863D01*
X118333Y007863D01*
X118283Y007873D01*
X118235Y007893D01*
X118193Y007921D01*
X118156Y007957D01*
X118128Y008000D01*
X118108Y008047D01*
X118098Y008098D01*
X118098Y008465D01*
X118927Y008465D01*
X118927Y008509D01*
X118098Y008509D01*
X118098Y008604D01*
X109799Y008581D01*
X109799Y008509D01*
X108971Y008509D01*
X108971Y008465D01*
X108971Y007863D01*
X109565Y007863D01*
X109615Y007873D01*
X109663Y007893D01*
X109705Y007921D01*
X109741Y007957D01*
X109770Y008000D01*
X109789Y008047D01*
X109799Y008098D01*
X109799Y008465D01*
X108971Y008465D01*
X108927Y008465D01*
X108927Y007863D01*
X108333Y007863D01*
X108283Y007873D01*
X108235Y007893D01*
X108193Y007921D01*
X108156Y007957D01*
X108128Y008000D01*
X108108Y008047D01*
X108098Y008098D01*
X108098Y008465D01*
X108927Y008465D01*
X108927Y008509D01*
X108098Y008509D01*
X108098Y008577D01*
X099799Y008554D01*
X099799Y008509D01*
X098971Y008509D01*
X098971Y008465D01*
X098971Y007863D01*
X099565Y007863D01*
X099615Y007873D01*
X099663Y007893D01*
X099705Y007921D01*
X099741Y007957D01*
X099770Y008000D01*
X099789Y008047D01*
X099799Y008098D01*
X099799Y008465D01*
X098971Y008465D01*
X098927Y008465D01*
X098927Y007863D01*
X098333Y007863D01*
X098283Y007873D01*
X098235Y007893D01*
X098193Y007921D01*
X098156Y007957D01*
X098128Y008000D01*
X098108Y008047D01*
X098098Y008098D01*
X098098Y008465D01*
X098927Y008465D01*
X098927Y008509D01*
X098098Y008509D01*
X098098Y008549D01*
X089799Y008527D01*
X089799Y008509D01*
X088971Y008509D01*
X088971Y008465D01*
X088971Y007863D01*
X089565Y007863D01*
X089615Y007873D01*
X089663Y007893D01*
X089705Y007921D01*
X089741Y007957D01*
X089770Y008000D01*
X089789Y008047D01*
X089799Y008098D01*
X089799Y008465D01*
X088971Y008465D01*
X088927Y008465D01*
X088927Y007863D01*
X088333Y007863D01*
X088283Y007873D01*
X088235Y007893D01*
X088193Y007921D01*
X088156Y007957D01*
X088128Y008000D01*
X088108Y008047D01*
X088098Y008098D01*
X088098Y008465D01*
X088927Y008465D01*
X088927Y008509D01*
X088098Y008509D01*
X088098Y008522D01*
X078971Y008497D01*
X078971Y008465D01*
X078971Y007863D01*
X079565Y007863D01*
X079615Y007873D01*
X079663Y007893D01*
X079705Y007921D01*
X079741Y007957D01*
X079770Y008000D01*
X079789Y008047D01*
X079799Y008098D01*
X079799Y008465D01*
X078971Y008465D01*
X078927Y008465D01*
X078927Y007863D01*
X078333Y007863D01*
X078283Y007873D01*
X078235Y007893D01*
X078193Y007921D01*
X078156Y007957D01*
X078128Y008000D01*
X078108Y008047D01*
X078098Y008098D01*
X078098Y008465D01*
X078927Y008465D01*
X078927Y008497D01*
X068971Y008470D01*
X068971Y008465D01*
X068971Y007863D01*
X069565Y007863D01*
X069615Y007873D01*
X069663Y007893D01*
X069705Y007921D01*
X069741Y007957D01*
X069770Y008000D01*
X069789Y008047D01*
X069799Y008098D01*
X069799Y008465D01*
X068971Y008465D01*
X068927Y008465D01*
X068927Y007863D01*
X068333Y007863D01*
X068283Y007873D01*
X068235Y007893D01*
X068193Y007921D01*
X068156Y007957D01*
X068128Y008000D01*
X068108Y008047D01*
X068098Y008098D01*
X068098Y008465D01*
X068927Y008465D01*
X068927Y008469D01*
X059799Y008444D01*
X059799Y008098D01*
X059789Y008047D01*
X059770Y008000D01*
X059741Y007957D01*
X059705Y007921D01*
X059663Y007893D01*
X059615Y007873D01*
X059565Y007863D01*
X058971Y007863D01*
X058971Y008442D01*
X058927Y008442D01*
X058927Y007863D01*
X058333Y007863D01*
X058283Y007873D01*
X058235Y007893D01*
X058193Y007921D01*
X058156Y007957D01*
X058128Y008000D01*
X058108Y008047D01*
X058098Y008098D01*
X058098Y008440D01*
X049799Y008417D01*
X049799Y008098D01*
X049789Y008047D01*
X049770Y008000D01*
X049741Y007957D01*
X049705Y007921D01*
X049663Y007893D01*
X049615Y007873D01*
X049565Y007863D01*
X048971Y007863D01*
X048971Y008415D01*
X048927Y008415D01*
X048927Y007863D01*
X048333Y007863D01*
X048283Y007873D01*
X048235Y007893D01*
X048193Y007921D01*
X048156Y007957D01*
X048128Y008000D01*
X048108Y008047D01*
X048098Y008098D01*
X048098Y008412D01*
X039799Y008390D01*
X039799Y008098D01*
X039789Y008047D01*
X039770Y008000D01*
X039741Y007957D01*
X039705Y007921D01*
X039663Y007893D01*
X039615Y007873D01*
X039565Y007863D01*
X038971Y007863D01*
X038971Y008387D01*
X038927Y008387D01*
X038927Y007863D01*
X038333Y007863D01*
X038283Y007873D01*
X038235Y007893D01*
X038193Y007921D01*
X038156Y007957D01*
X038128Y008000D01*
X038108Y008047D01*
X038098Y008098D01*
X038098Y008385D01*
X029799Y008362D01*
X029799Y008098D01*
X029789Y008047D01*
X029770Y008000D01*
X029741Y007957D01*
X029705Y007921D01*
X029663Y007893D01*
X029615Y007873D01*
X029565Y007863D01*
X028971Y007863D01*
X028971Y008360D01*
X028949Y008360D01*
X028927Y008360D01*
X028927Y007863D01*
X028333Y007863D01*
X028283Y007873D01*
X028235Y007893D01*
X028193Y007921D01*
X028156Y007957D01*
X028128Y008000D01*
X028108Y008047D01*
X028098Y008098D01*
X028098Y008360D01*
X027699Y008360D01*
X027699Y008295D02*
X028098Y008295D01*
X028143Y007977D02*
X027699Y007977D01*
X027699Y007658D02*
X120199Y007658D01*
X120199Y007340D02*
X074465Y007340D01*
X074446Y007354D02*
X074345Y007413D01*
X074237Y007457D01*
X074124Y007488D01*
X074008Y007503D01*
X074006Y007503D01*
X074006Y006667D01*
X073892Y006667D01*
X073892Y007503D01*
X073890Y007503D01*
X073774Y007488D01*
X073661Y007457D01*
X073553Y007413D01*
X073452Y007354D01*
X073359Y007283D01*
X073276Y007200D01*
X073205Y007107D01*
X073146Y007006D01*
X073101Y006898D01*
X073071Y006785D01*
X073056Y006668D01*
X073056Y006666D01*
X073892Y006666D01*
X073892Y006553D01*
X073056Y006553D01*
X073056Y006551D01*
X073071Y006435D01*
X073101Y006322D01*
X073146Y006214D01*
X073205Y006113D01*
X073276Y006020D01*
X073359Y005937D01*
X073452Y005866D01*
X073553Y005807D01*
X073661Y005762D01*
X073774Y005732D01*
X073890Y005717D01*
X073892Y005717D01*
X073892Y006553D01*
X074006Y006553D01*
X074006Y006666D01*
X074842Y006666D01*
X074842Y006668D01*
X074827Y006785D01*
X074796Y006898D01*
X074752Y007006D01*
X074693Y007107D01*
X074622Y007200D01*
X074539Y007283D01*
X074446Y007354D01*
X074006Y007340D02*
X073892Y007340D01*
X073892Y007021D02*
X074006Y007021D01*
X074006Y006703D02*
X073892Y006703D01*
X074006Y006553D02*
X074842Y006553D01*
X074842Y006551D01*
X074827Y006435D01*
X074796Y006322D01*
X074752Y006214D01*
X074693Y006113D01*
X074622Y006020D01*
X074539Y005937D01*
X074446Y005866D01*
X074345Y005807D01*
X074237Y005762D01*
X074124Y005732D01*
X074008Y005717D01*
X074006Y005717D01*
X074006Y006553D01*
X074006Y006384D02*
X073892Y006384D01*
X073892Y006066D02*
X074006Y006066D01*
X074006Y005747D02*
X073892Y005747D01*
X073719Y005747D02*
X027699Y005747D01*
X027699Y006066D02*
X073241Y006066D01*
X073085Y006384D02*
X027699Y006384D01*
X027699Y006703D02*
X073060Y006703D01*
X073155Y007021D02*
X027699Y007021D01*
X027699Y007340D02*
X073433Y007340D01*
X074743Y007021D02*
X120199Y007021D01*
X120199Y006703D02*
X074838Y006703D01*
X074813Y006384D02*
X120199Y006384D01*
X120199Y006066D02*
X074657Y006066D01*
X074179Y005747D02*
X120199Y005747D01*
X127699Y005747D02*
X173719Y005747D01*
X173774Y005732D02*
X173890Y005717D01*
X173892Y005717D01*
X173892Y006553D01*
X173056Y006553D01*
X173056Y006551D01*
X173071Y006435D01*
X173101Y006322D01*
X173146Y006214D01*
X173205Y006113D01*
X173276Y006020D01*
X173359Y005937D01*
X173452Y005866D01*
X173553Y005807D01*
X173661Y005762D01*
X173774Y005732D01*
X173892Y005747D02*
X174006Y005747D01*
X174008Y005717D02*
X174124Y005732D01*
X174237Y005762D01*
X174345Y005807D01*
X174446Y005866D01*
X174539Y005937D01*
X174622Y006020D01*
X174693Y006113D01*
X174752Y006214D01*
X174796Y006322D01*
X174827Y006435D01*
X174842Y006551D01*
X174842Y006553D01*
X174006Y006553D01*
X174006Y006666D01*
X174842Y006666D01*
X174842Y006668D01*
X174827Y006785D01*
X174796Y006898D01*
X174752Y007006D01*
X174693Y007107D01*
X174622Y007200D01*
X174539Y007283D01*
X174446Y007354D01*
X174345Y007413D01*
X174237Y007457D01*
X174124Y007488D01*
X174008Y007503D01*
X174006Y007503D01*
X174006Y006667D01*
X173892Y006667D01*
X173892Y007503D01*
X173890Y007503D01*
X173774Y007488D01*
X173661Y007457D01*
X173553Y007413D01*
X173452Y007354D01*
X173359Y007283D01*
X173276Y007200D01*
X173205Y007107D01*
X173146Y007006D01*
X173101Y006898D01*
X173071Y006785D01*
X173056Y006668D01*
X173056Y006666D01*
X173892Y006666D01*
X173892Y006553D01*
X174006Y006553D01*
X174006Y005717D01*
X174008Y005717D01*
X174179Y005747D02*
X220199Y005747D01*
X220199Y005610D02*
X127699Y005610D01*
X127699Y008610D01*
X128098Y008610D01*
X128098Y008509D01*
X128927Y008509D01*
X128927Y008465D01*
X128971Y008465D01*
X128971Y007863D01*
X129565Y007863D01*
X129615Y007873D01*
X129663Y007893D01*
X129705Y007921D01*
X129741Y007957D01*
X129770Y008000D01*
X129789Y008047D01*
X129799Y008098D01*
X129799Y008465D01*
X128971Y008465D01*
X128971Y008509D01*
X129799Y008509D01*
X129799Y008610D01*
X138098Y008610D01*
X138098Y008509D01*
X138927Y008509D01*
X138927Y008465D01*
X138971Y008465D01*
X138971Y007863D01*
X139565Y007863D01*
X139615Y007873D01*
X139663Y007893D01*
X139705Y007921D01*
X139741Y007957D01*
X139770Y008000D01*
X139789Y008047D01*
X139799Y008098D01*
X139799Y008465D01*
X138971Y008465D01*
X138971Y008509D01*
X139799Y008509D01*
X139799Y008610D01*
X148098Y008610D01*
X148098Y008509D01*
X148927Y008509D01*
X148927Y008465D01*
X148971Y008465D01*
X148971Y007863D01*
X149565Y007863D01*
X149615Y007873D01*
X149663Y007893D01*
X149705Y007921D01*
X149741Y007957D01*
X149770Y008000D01*
X149789Y008047D01*
X149799Y008098D01*
X149799Y008465D01*
X148971Y008465D01*
X148971Y008509D01*
X149799Y008509D01*
X149799Y008610D01*
X158098Y008610D01*
X158098Y008509D01*
X158927Y008509D01*
X158927Y008465D01*
X158971Y008465D01*
X158971Y007863D01*
X159565Y007863D01*
X159615Y007873D01*
X159663Y007893D01*
X159705Y007921D01*
X159741Y007957D01*
X159770Y008000D01*
X159789Y008047D01*
X159799Y008098D01*
X159799Y008465D01*
X158971Y008465D01*
X158971Y008509D01*
X159799Y008509D01*
X159799Y008610D01*
X168098Y008610D01*
X168098Y008509D01*
X168927Y008509D01*
X168927Y008465D01*
X168971Y008465D01*
X168971Y007863D01*
X169565Y007863D01*
X169615Y007873D01*
X169663Y007893D01*
X169705Y007921D01*
X169741Y007957D01*
X169770Y008000D01*
X169789Y008047D01*
X169799Y008098D01*
X169799Y008465D01*
X168971Y008465D01*
X168971Y008509D01*
X169799Y008509D01*
X169799Y008610D01*
X178098Y008610D01*
X178098Y008509D01*
X178927Y008509D01*
X178927Y008465D01*
X178971Y008465D01*
X178971Y007863D01*
X179565Y007863D01*
X179615Y007873D01*
X179663Y007893D01*
X179705Y007921D01*
X179741Y007957D01*
X179770Y008000D01*
X179789Y008047D01*
X179799Y008098D01*
X179799Y008465D01*
X178971Y008465D01*
X178971Y008509D01*
X179799Y008509D01*
X179799Y008610D01*
X188098Y008610D01*
X188098Y008509D01*
X188927Y008509D01*
X188927Y008465D01*
X188971Y008465D01*
X188971Y007863D01*
X189565Y007863D01*
X189615Y007873D01*
X189663Y007893D01*
X189705Y007921D01*
X189741Y007957D01*
X189770Y008000D01*
X189789Y008047D01*
X189799Y008098D01*
X189799Y008465D01*
X188971Y008465D01*
X188971Y008509D01*
X189799Y008509D01*
X189799Y008610D01*
X198098Y008610D01*
X198098Y008509D01*
X198927Y008509D01*
X198927Y008465D01*
X198971Y008465D01*
X198971Y007863D01*
X199565Y007863D01*
X199615Y007873D01*
X199663Y007893D01*
X199705Y007921D01*
X199741Y007957D01*
X199770Y008000D01*
X199789Y008047D01*
X199799Y008098D01*
X199799Y008465D01*
X198971Y008465D01*
X198971Y008509D01*
X199799Y008509D01*
X199799Y008610D01*
X208098Y008610D01*
X208098Y008509D01*
X208927Y008509D01*
X208927Y008465D01*
X208971Y008465D01*
X208971Y007863D01*
X209565Y007863D01*
X209615Y007873D01*
X209663Y007893D01*
X209705Y007921D01*
X209741Y007957D01*
X209770Y008000D01*
X209789Y008047D01*
X209799Y008098D01*
X209799Y008465D01*
X208971Y008465D01*
X208971Y008509D01*
X209799Y008509D01*
X209799Y008610D01*
X218098Y008610D01*
X218098Y008509D01*
X218927Y008509D01*
X218927Y008465D01*
X218971Y008465D01*
X218971Y007863D01*
X219565Y007863D01*
X219615Y007873D01*
X219663Y007893D01*
X219705Y007921D01*
X219741Y007957D01*
X219770Y008000D01*
X219789Y008047D01*
X219799Y008098D01*
X219799Y008465D01*
X218971Y008465D01*
X218971Y008509D01*
X219799Y008509D01*
X219799Y008610D01*
X220199Y008610D01*
X220199Y005610D01*
X220199Y006066D02*
X174657Y006066D01*
X174813Y006384D02*
X220199Y006384D01*
X220199Y006703D02*
X174838Y006703D01*
X174743Y007021D02*
X220199Y007021D01*
X220199Y007340D02*
X174465Y007340D01*
X174006Y007340D02*
X173892Y007340D01*
X173892Y007021D02*
X174006Y007021D01*
X174006Y006703D02*
X173892Y006703D01*
X173892Y006384D02*
X174006Y006384D01*
X174006Y006066D02*
X173892Y006066D01*
X173241Y006066D02*
X127699Y006066D01*
X127699Y006384D02*
X173085Y006384D01*
X173060Y006703D02*
X127699Y006703D01*
X127699Y007021D02*
X173155Y007021D01*
X173433Y007340D02*
X127699Y007340D01*
X127699Y007658D02*
X220199Y007658D01*
X220199Y007977D02*
X219754Y007977D01*
X219799Y008295D02*
X220199Y008295D01*
X218971Y008295D02*
X218927Y008295D01*
X218927Y008465D02*
X218927Y007863D01*
X218333Y007863D01*
X218283Y007873D01*
X218235Y007893D01*
X218193Y007921D01*
X218156Y007957D01*
X218128Y008000D01*
X218108Y008047D01*
X218098Y008098D01*
X218098Y008465D01*
X218927Y008465D01*
X218927Y007977D02*
X218971Y007977D01*
X218143Y007977D02*
X209754Y007977D01*
X209799Y008295D02*
X218098Y008295D01*
X218949Y009235D02*
X208949Y009235D01*
X198949Y009235D01*
X188949Y009235D01*
X178949Y009235D01*
X178949Y010610D01*
X178449Y011110D01*
X173949Y011110D01*
X169449Y011110D01*
X168949Y010610D01*
X168949Y009235D01*
X158949Y009235D01*
X148949Y009235D01*
X138949Y009235D01*
X128949Y009235D01*
X128927Y008465D02*
X128098Y008465D01*
X128098Y008098D01*
X128108Y008047D01*
X128128Y008000D01*
X128156Y007957D01*
X128193Y007921D01*
X128235Y007893D01*
X128283Y007873D01*
X128333Y007863D01*
X128927Y007863D01*
X128927Y008465D01*
X128927Y008295D02*
X128971Y008295D01*
X128971Y007977D02*
X128927Y007977D01*
X128143Y007977D02*
X127699Y007977D01*
X127699Y008295D02*
X128098Y008295D01*
X129754Y007977D02*
X138143Y007977D01*
X138156Y007957D02*
X138193Y007921D01*
X138235Y007893D01*
X138283Y007873D01*
X138333Y007863D01*
X138927Y007863D01*
X138927Y008465D01*
X138098Y008465D01*
X138098Y008098D01*
X138108Y008047D01*
X138128Y008000D01*
X138156Y007957D01*
X138098Y008295D02*
X129799Y008295D01*
X138927Y008295D02*
X138971Y008295D01*
X138971Y007977D02*
X138927Y007977D01*
X139754Y007977D02*
X148143Y007977D01*
X148156Y007957D02*
X148193Y007921D01*
X148235Y007893D01*
X148283Y007873D01*
X148333Y007863D01*
X148927Y007863D01*
X148927Y008465D01*
X148098Y008465D01*
X148098Y008098D01*
X148108Y008047D01*
X148128Y008000D01*
X148156Y007957D01*
X148098Y008295D02*
X139799Y008295D01*
X148927Y008295D02*
X148971Y008295D01*
X148971Y007977D02*
X148927Y007977D01*
X149754Y007977D02*
X158143Y007977D01*
X158156Y007957D02*
X158128Y008000D01*
X158108Y008047D01*
X158098Y008098D01*
X158098Y008465D01*
X158927Y008465D01*
X158927Y007863D01*
X158333Y007863D01*
X158283Y007873D01*
X158235Y007893D01*
X158193Y007921D01*
X158156Y007957D01*
X158098Y008295D02*
X149799Y008295D01*
X158927Y008295D02*
X158971Y008295D01*
X158971Y007977D02*
X158927Y007977D01*
X159754Y007977D02*
X168143Y007977D01*
X168156Y007957D02*
X168193Y007921D01*
X168235Y007893D01*
X168283Y007873D01*
X168333Y007863D01*
X168927Y007863D01*
X168927Y008465D01*
X168098Y008465D01*
X168098Y008098D01*
X168108Y008047D01*
X168128Y008000D01*
X168156Y007957D01*
X168098Y008295D02*
X159799Y008295D01*
X168927Y008295D02*
X168971Y008295D01*
X168971Y007977D02*
X168927Y007977D01*
X169754Y007977D02*
X178143Y007977D01*
X178156Y007957D02*
X178193Y007921D01*
X178235Y007893D01*
X178283Y007873D01*
X178333Y007863D01*
X178927Y007863D01*
X178927Y008465D01*
X178098Y008465D01*
X178098Y008098D01*
X178108Y008047D01*
X178128Y008000D01*
X178156Y007957D01*
X178098Y008295D02*
X169799Y008295D01*
X178927Y008295D02*
X178971Y008295D01*
X178971Y007977D02*
X178927Y007977D01*
X179754Y007977D02*
X188143Y007977D01*
X188156Y007957D02*
X188193Y007921D01*
X188235Y007893D01*
X188283Y007873D01*
X188333Y007863D01*
X188927Y007863D01*
X188927Y008465D01*
X188098Y008465D01*
X188098Y008098D01*
X188108Y008047D01*
X188128Y008000D01*
X188156Y007957D01*
X188098Y008295D02*
X179799Y008295D01*
X188927Y008295D02*
X188971Y008295D01*
X188971Y007977D02*
X188927Y007977D01*
X189754Y007977D02*
X198143Y007977D01*
X198156Y007957D02*
X198193Y007921D01*
X198235Y007893D01*
X198283Y007873D01*
X198333Y007863D01*
X198927Y007863D01*
X198927Y008465D01*
X198098Y008465D01*
X198098Y008098D01*
X198108Y008047D01*
X198128Y008000D01*
X198156Y007957D01*
X198098Y008295D02*
X189799Y008295D01*
X198927Y008295D02*
X198971Y008295D01*
X198971Y007977D02*
X198927Y007977D01*
X199754Y007977D02*
X208143Y007977D01*
X208156Y007957D02*
X208193Y007921D01*
X208235Y007893D01*
X208283Y007873D01*
X208333Y007863D01*
X208927Y007863D01*
X208927Y008465D01*
X208098Y008465D01*
X208098Y008098D01*
X208108Y008047D01*
X208128Y008000D01*
X208156Y007957D01*
X208098Y008295D02*
X199799Y008295D01*
X208927Y008295D02*
X208971Y008295D01*
X208971Y007977D02*
X208927Y007977D01*
X215199Y013610D02*
X122699Y013610D01*
X122699Y017110D01*
X123098Y017110D01*
X123098Y016758D01*
X123108Y016707D01*
X123128Y016660D01*
X123156Y016617D01*
X123193Y016581D01*
X123235Y016553D01*
X123283Y016533D01*
X123333Y016523D01*
X123927Y016523D01*
X123927Y017110D01*
X123971Y017110D01*
X123971Y016523D01*
X124565Y016523D01*
X124615Y016533D01*
X124663Y016553D01*
X124705Y016581D01*
X124741Y016617D01*
X124770Y016660D01*
X124789Y016707D01*
X124799Y016758D01*
X124799Y017110D01*
X133098Y017110D01*
X133098Y016758D01*
X133108Y016707D01*
X133128Y016660D01*
X133156Y016617D01*
X133193Y016581D01*
X133235Y016553D01*
X133283Y016533D01*
X133333Y016523D01*
X133927Y016523D01*
X133927Y017110D01*
X133971Y017110D01*
X133971Y016523D01*
X134565Y016523D01*
X134615Y016533D01*
X134663Y016553D01*
X134705Y016581D01*
X134741Y016617D01*
X134770Y016660D01*
X134789Y016707D01*
X134799Y016758D01*
X134799Y017110D01*
X143098Y017110D01*
X143098Y016758D01*
X143108Y016707D01*
X143128Y016660D01*
X143156Y016617D01*
X143193Y016581D01*
X143235Y016553D01*
X143283Y016533D01*
X143333Y016523D01*
X143927Y016523D01*
X143927Y017110D01*
X143971Y017110D01*
X143971Y016523D01*
X144565Y016523D01*
X144615Y016533D01*
X144663Y016553D01*
X144705Y016581D01*
X144741Y016617D01*
X144770Y016660D01*
X144789Y016707D01*
X144799Y016758D01*
X144799Y017110D01*
X153098Y017110D01*
X153098Y016758D01*
X153108Y016707D01*
X153128Y016660D01*
X153156Y016617D01*
X153193Y016581D01*
X153235Y016553D01*
X153283Y016533D01*
X153333Y016523D01*
X153927Y016523D01*
X153927Y017110D01*
X153971Y017110D01*
X153971Y016523D01*
X154565Y016523D01*
X154615Y016533D01*
X154663Y016553D01*
X154705Y016581D01*
X154741Y016617D01*
X154770Y016660D01*
X154789Y016707D01*
X154799Y016758D01*
X154799Y017110D01*
X163098Y017110D01*
X163098Y016758D01*
X163108Y016707D01*
X163128Y016660D01*
X163156Y016617D01*
X163193Y016581D01*
X163235Y016553D01*
X163283Y016533D01*
X163333Y016523D01*
X163927Y016523D01*
X163927Y017110D01*
X163971Y017110D01*
X163971Y016523D01*
X164565Y016523D01*
X164615Y016533D01*
X164663Y016553D01*
X164705Y016581D01*
X164741Y016617D01*
X164770Y016660D01*
X164789Y016707D01*
X164799Y016758D01*
X164799Y017110D01*
X173098Y017110D01*
X173098Y016758D01*
X173108Y016707D01*
X173128Y016660D01*
X173156Y016617D01*
X173193Y016581D01*
X173235Y016553D01*
X173283Y016533D01*
X173333Y016523D01*
X173927Y016523D01*
X173927Y017110D01*
X173971Y017110D01*
X173971Y016523D01*
X174565Y016523D01*
X174615Y016533D01*
X174663Y016553D01*
X174705Y016581D01*
X174741Y016617D01*
X174770Y016660D01*
X174789Y016707D01*
X174799Y016758D01*
X174799Y017110D01*
X183098Y017110D01*
X183098Y016758D01*
X183108Y016707D01*
X183128Y016660D01*
X183156Y016617D01*
X183193Y016581D01*
X183235Y016553D01*
X183283Y016533D01*
X183333Y016523D01*
X183927Y016523D01*
X183927Y017110D01*
X183971Y017110D01*
X183971Y016523D01*
X184565Y016523D01*
X184615Y016533D01*
X184663Y016553D01*
X184705Y016581D01*
X184741Y016617D01*
X184770Y016660D01*
X184789Y016707D01*
X184799Y016758D01*
X184799Y017110D01*
X193098Y017110D01*
X193098Y016758D01*
X193108Y016707D01*
X193128Y016660D01*
X193156Y016617D01*
X193193Y016581D01*
X193235Y016553D01*
X193283Y016533D01*
X193333Y016523D01*
X193927Y016523D01*
X193927Y017110D01*
X193971Y017110D01*
X193971Y016523D01*
X194565Y016523D01*
X194615Y016533D01*
X194663Y016553D01*
X194705Y016581D01*
X194741Y016617D01*
X194770Y016660D01*
X194789Y016707D01*
X194799Y016758D01*
X194799Y017110D01*
X203098Y017110D01*
X203098Y016758D01*
X203108Y016707D01*
X203128Y016660D01*
X203156Y016617D01*
X203193Y016581D01*
X203235Y016553D01*
X203283Y016533D01*
X203333Y016523D01*
X203927Y016523D01*
X203927Y017110D01*
X203971Y017110D01*
X203971Y016523D01*
X204565Y016523D01*
X204615Y016533D01*
X204663Y016553D01*
X204705Y016581D01*
X204741Y016617D01*
X204770Y016660D01*
X204789Y016707D01*
X204799Y016758D01*
X204799Y017110D01*
X213098Y017110D01*
X213098Y016758D01*
X213108Y016707D01*
X213128Y016660D01*
X213156Y016617D01*
X213193Y016581D01*
X213235Y016553D01*
X213283Y016533D01*
X213333Y016523D01*
X213927Y016523D01*
X213927Y017110D01*
X213971Y017110D01*
X213971Y016523D01*
X214565Y016523D01*
X214615Y016533D01*
X214663Y016553D01*
X214705Y016581D01*
X214741Y016617D01*
X214770Y016660D01*
X214789Y016707D01*
X214799Y016758D01*
X214799Y017110D01*
X215199Y017110D01*
X215199Y013610D01*
X215199Y013711D02*
X122699Y013711D01*
X122699Y014029D02*
X215199Y014029D01*
X215199Y014348D02*
X169415Y014348D01*
X169446Y014366D02*
X169539Y014437D01*
X169622Y014520D01*
X169693Y014613D01*
X169752Y014714D01*
X169796Y014822D01*
X169827Y014935D01*
X169842Y015051D01*
X169842Y015053D01*
X169006Y015053D01*
X169006Y015166D01*
X169842Y015166D01*
X169842Y015168D01*
X169827Y015285D01*
X169796Y015398D01*
X169752Y015506D01*
X169693Y015607D01*
X169622Y015700D01*
X169539Y015783D01*
X169446Y015854D01*
X169345Y015913D01*
X169237Y015957D01*
X169124Y015988D01*
X169008Y016003D01*
X169006Y016003D01*
X169006Y015167D01*
X168892Y015167D01*
X168892Y016003D01*
X168890Y016003D01*
X168774Y015988D01*
X168661Y015957D01*
X168553Y015913D01*
X168452Y015854D01*
X168359Y015783D01*
X168276Y015700D01*
X168205Y015607D01*
X168146Y015506D01*
X168101Y015398D01*
X168071Y015285D01*
X168056Y015168D01*
X168056Y015166D01*
X168892Y015166D01*
X168892Y015053D01*
X168056Y015053D01*
X168056Y015051D01*
X168071Y014935D01*
X168101Y014822D01*
X168146Y014714D01*
X168205Y014613D01*
X168276Y014520D01*
X168359Y014437D01*
X168452Y014366D01*
X168553Y014307D01*
X168661Y014262D01*
X168774Y014232D01*
X168890Y014217D01*
X168892Y014217D01*
X168892Y015053D01*
X169006Y015053D01*
X169006Y014217D01*
X169008Y014217D01*
X169124Y014232D01*
X169237Y014262D01*
X169345Y014307D01*
X169446Y014366D01*
X169724Y014666D02*
X215199Y014666D01*
X215199Y014985D02*
X169833Y014985D01*
X169822Y015303D02*
X215199Y015303D01*
X215199Y015622D02*
X169682Y015622D01*
X169278Y015940D02*
X215199Y015940D01*
X215199Y016259D02*
X122699Y016259D01*
X122699Y016577D02*
X123198Y016577D01*
X123098Y016896D02*
X122699Y016896D01*
X123927Y016896D02*
X123971Y016896D01*
X123971Y016577D02*
X123927Y016577D01*
X124700Y016577D02*
X133198Y016577D01*
X133098Y016896D02*
X124799Y016896D01*
X122699Y015940D02*
X168620Y015940D01*
X168892Y015940D02*
X169006Y015940D01*
X169006Y015622D02*
X168892Y015622D01*
X168892Y015303D02*
X169006Y015303D01*
X169006Y014985D02*
X168892Y014985D01*
X168892Y014666D02*
X169006Y014666D01*
X169006Y014348D02*
X168892Y014348D01*
X168483Y014348D02*
X122699Y014348D01*
X122699Y014666D02*
X168174Y014666D01*
X168065Y014985D02*
X122699Y014985D01*
X122699Y015303D02*
X168076Y015303D01*
X168216Y015622D02*
X122699Y015622D01*
X115199Y015622D02*
X069682Y015622D01*
X069693Y015607D02*
X069622Y015700D01*
X069539Y015783D01*
X069446Y015854D01*
X069345Y015913D01*
X069237Y015957D01*
X069124Y015988D01*
X069008Y016003D01*
X069006Y016003D01*
X069006Y015167D01*
X068892Y015167D01*
X068892Y016003D01*
X068890Y016003D01*
X068774Y015988D01*
X068661Y015957D01*
X068553Y015913D01*
X068452Y015854D01*
X068359Y015783D01*
X068276Y015700D01*
X068205Y015607D01*
X068146Y015506D01*
X068101Y015398D01*
X068071Y015285D01*
X068056Y015168D01*
X068056Y015166D01*
X068892Y015166D01*
X068892Y015053D01*
X068056Y015053D01*
X068056Y015051D01*
X068071Y014935D01*
X068101Y014822D01*
X068146Y014714D01*
X068205Y014613D01*
X068276Y014520D01*
X068359Y014437D01*
X068452Y014366D01*
X068553Y014307D01*
X068661Y014262D01*
X068774Y014232D01*
X068890Y014217D01*
X068892Y014217D01*
X068892Y015053D01*
X069006Y015053D01*
X069006Y015166D01*
X069842Y015166D01*
X069842Y015168D01*
X069827Y015285D01*
X069796Y015398D01*
X069752Y015506D01*
X069693Y015607D01*
X069822Y015303D02*
X115199Y015303D01*
X115199Y014985D02*
X069833Y014985D01*
X069827Y014935D02*
X069842Y015051D01*
X069842Y015053D01*
X069006Y015053D01*
X069006Y014217D01*
X069008Y014217D01*
X069124Y014232D01*
X069237Y014262D01*
X069345Y014307D01*
X069446Y014366D01*
X069539Y014437D01*
X069622Y014520D01*
X069693Y014613D01*
X069752Y014714D01*
X069796Y014822D01*
X069827Y014935D01*
X069724Y014666D02*
X115199Y014666D01*
X115199Y014348D02*
X069415Y014348D01*
X069006Y014348D02*
X068892Y014348D01*
X068892Y014666D02*
X069006Y014666D01*
X069006Y014985D02*
X068892Y014985D01*
X068892Y015303D02*
X069006Y015303D01*
X069006Y015622D02*
X068892Y015622D01*
X068892Y015940D02*
X069006Y015940D01*
X069278Y015940D02*
X115199Y015940D01*
X115199Y016259D02*
X022699Y016259D01*
X022699Y016577D02*
X023198Y016577D01*
X023193Y016581D02*
X023235Y016553D01*
X023283Y016533D01*
X023333Y016523D01*
X023927Y016523D01*
X023927Y017110D01*
X023971Y017110D01*
X023971Y016523D01*
X024565Y016523D01*
X024615Y016533D01*
X024663Y016553D01*
X024705Y016581D01*
X024741Y016617D01*
X024770Y016660D01*
X024789Y016707D01*
X024799Y016758D01*
X024799Y017110D01*
X033098Y017110D01*
X033098Y016758D01*
X033108Y016707D01*
X033128Y016660D01*
X033156Y016617D01*
X033193Y016581D01*
X033235Y016553D01*
X033283Y016533D01*
X033333Y016523D01*
X033927Y016523D01*
X033927Y017110D01*
X033971Y017110D01*
X033971Y016523D01*
X034565Y016523D01*
X034615Y016533D01*
X034663Y016553D01*
X034705Y016581D01*
X034741Y016617D01*
X034770Y016660D01*
X034789Y016707D01*
X034799Y016758D01*
X034799Y017110D01*
X043098Y017110D01*
X043098Y016758D01*
X043108Y016707D01*
X043128Y016660D01*
X043156Y016617D01*
X043193Y016581D01*
X043235Y016553D01*
X043283Y016533D01*
X043333Y016523D01*
X043927Y016523D01*
X043927Y017110D01*
X043971Y017110D01*
X043971Y016523D01*
X044565Y016523D01*
X044615Y016533D01*
X044663Y016553D01*
X044705Y016581D01*
X044741Y016617D01*
X044770Y016660D01*
X044789Y016707D01*
X044799Y016758D01*
X044799Y017110D01*
X053098Y017110D01*
X053098Y016758D01*
X053108Y016707D01*
X053128Y016660D01*
X053156Y016617D01*
X053193Y016581D01*
X053235Y016553D01*
X053283Y016533D01*
X053333Y016523D01*
X053927Y016523D01*
X053927Y017110D01*
X053971Y017110D01*
X053971Y016523D01*
X054565Y016523D01*
X054615Y016533D01*
X054663Y016553D01*
X054705Y016581D01*
X054741Y016617D01*
X054770Y016660D01*
X054789Y016707D01*
X054799Y016758D01*
X054799Y017110D01*
X063098Y017110D01*
X063098Y016758D01*
X063108Y016707D01*
X063128Y016660D01*
X063156Y016617D01*
X063193Y016581D01*
X063235Y016553D01*
X063283Y016533D01*
X063333Y016523D01*
X063927Y016523D01*
X063927Y017110D01*
X063971Y017110D01*
X063971Y016523D01*
X064565Y016523D01*
X064615Y016533D01*
X064663Y016553D01*
X064705Y016581D01*
X064741Y016617D01*
X064770Y016660D01*
X064789Y016707D01*
X064799Y016758D01*
X064799Y017110D01*
X073098Y017110D01*
X073098Y016758D01*
X073108Y016707D01*
X073128Y016660D01*
X073156Y016617D01*
X073193Y016581D01*
X073235Y016553D01*
X073283Y016533D01*
X073333Y016523D01*
X073927Y016523D01*
X073927Y017110D01*
X073971Y017110D01*
X073971Y016523D01*
X074565Y016523D01*
X074615Y016533D01*
X074663Y016553D01*
X074705Y016581D01*
X074741Y016617D01*
X074770Y016660D01*
X074789Y016707D01*
X074799Y016758D01*
X074799Y017110D01*
X083098Y017110D01*
X083098Y016758D01*
X083108Y016707D01*
X083128Y016660D01*
X083156Y016617D01*
X083193Y016581D01*
X083235Y016553D01*
X083283Y016533D01*
X083333Y016523D01*
X083927Y016523D01*
X083927Y017110D01*
X083971Y017110D01*
X083971Y016523D01*
X084565Y016523D01*
X084615Y016533D01*
X084663Y016553D01*
X084705Y016581D01*
X084741Y016617D01*
X084770Y016660D01*
X084789Y016707D01*
X084799Y016758D01*
X084799Y017110D01*
X093098Y017110D01*
X093098Y016758D01*
X093108Y016707D01*
X093128Y016660D01*
X093156Y016617D01*
X093193Y016581D01*
X093235Y016553D01*
X093283Y016533D01*
X093333Y016523D01*
X093927Y016523D01*
X093927Y017110D01*
X093971Y017110D01*
X093971Y016523D01*
X094565Y016523D01*
X094615Y016533D01*
X094663Y016553D01*
X094705Y016581D01*
X094741Y016617D01*
X094770Y016660D01*
X094789Y016707D01*
X094799Y016758D01*
X094799Y017110D01*
X103098Y017110D01*
X103098Y016758D01*
X103108Y016707D01*
X103128Y016660D01*
X103156Y016617D01*
X103193Y016581D01*
X103235Y016553D01*
X103283Y016533D01*
X103333Y016523D01*
X103927Y016523D01*
X103927Y017110D01*
X103971Y017110D01*
X103971Y016523D01*
X104565Y016523D01*
X104615Y016533D01*
X104663Y016553D01*
X104705Y016581D01*
X104741Y016617D01*
X104770Y016660D01*
X104789Y016707D01*
X104799Y016758D01*
X104799Y017110D01*
X113098Y017110D01*
X113098Y016758D01*
X113108Y016707D01*
X113128Y016660D01*
X113156Y016617D01*
X113193Y016581D01*
X113235Y016553D01*
X113283Y016533D01*
X113333Y016523D01*
X113927Y016523D01*
X113927Y017110D01*
X113971Y017110D01*
X113971Y016523D01*
X114565Y016523D01*
X114615Y016533D01*
X114663Y016553D01*
X114705Y016581D01*
X114741Y016617D01*
X114770Y016660D01*
X114789Y016707D01*
X114799Y016758D01*
X114799Y017110D01*
X115199Y017110D01*
X115199Y013610D01*
X022699Y013610D01*
X022699Y017110D01*
X023098Y017110D01*
X023098Y016758D01*
X023108Y016707D01*
X023128Y016660D01*
X023156Y016617D01*
X023193Y016581D01*
X023098Y016896D02*
X022699Y016896D01*
X023927Y016896D02*
X023971Y016896D01*
X023971Y016577D02*
X023927Y016577D01*
X024700Y016577D02*
X033198Y016577D01*
X033098Y016896D02*
X024799Y016896D01*
X022699Y015940D02*
X068620Y015940D01*
X068216Y015622D02*
X022699Y015622D01*
X022699Y015303D02*
X068076Y015303D01*
X068065Y014985D02*
X022699Y014985D01*
X022699Y014666D02*
X068174Y014666D01*
X068483Y014348D02*
X022699Y014348D01*
X022699Y014029D02*
X115199Y014029D01*
X115199Y013711D02*
X022699Y013711D01*
X033927Y016577D02*
X033971Y016577D01*
X033971Y016896D02*
X033927Y016896D01*
X034700Y016577D02*
X043198Y016577D01*
X043098Y016896D02*
X034799Y016896D01*
X033949Y017895D02*
X043949Y017895D01*
X053949Y017895D01*
X063949Y017895D01*
X063949Y019610D01*
X064449Y020110D01*
X068949Y020110D01*
X073449Y020110D01*
X073949Y019610D01*
X073949Y017895D01*
X083949Y017895D01*
X093949Y017895D01*
X103949Y017895D01*
X113949Y017895D01*
X113927Y016896D02*
X113971Y016896D01*
X113971Y016577D02*
X113927Y016577D01*
X113198Y016577D02*
X104700Y016577D01*
X104799Y016896D02*
X113098Y016896D01*
X114700Y016577D02*
X115199Y016577D01*
X115199Y016896D02*
X114799Y016896D01*
X123949Y017895D02*
X133949Y017895D01*
X143949Y017895D01*
X153949Y017895D01*
X163949Y017895D01*
X163949Y019110D01*
X164449Y019610D01*
X168949Y019610D01*
X173449Y019610D01*
X173949Y019110D01*
X173949Y017895D01*
X183949Y017895D01*
X193949Y017895D01*
X203949Y017895D01*
X213949Y017895D01*
X213927Y016896D02*
X213971Y016896D01*
X213971Y016577D02*
X213927Y016577D01*
X213198Y016577D02*
X204700Y016577D01*
X204799Y016896D02*
X213098Y016896D01*
X214700Y016577D02*
X215199Y016577D01*
X215199Y016896D02*
X214799Y016896D01*
X203971Y016896D02*
X203927Y016896D01*
X203927Y016577D02*
X203971Y016577D01*
X203198Y016577D02*
X194700Y016577D01*
X194799Y016896D02*
X203098Y016896D01*
X193971Y016896D02*
X193927Y016896D01*
X193927Y016577D02*
X193971Y016577D01*
X193198Y016577D02*
X184700Y016577D01*
X184799Y016896D02*
X193098Y016896D01*
X183971Y016896D02*
X183927Y016896D01*
X183927Y016577D02*
X183971Y016577D01*
X183198Y016577D02*
X174700Y016577D01*
X174799Y016896D02*
X183098Y016896D01*
X173971Y016896D02*
X173927Y016896D01*
X173927Y016577D02*
X173971Y016577D01*
X173198Y016577D02*
X164700Y016577D01*
X164799Y016896D02*
X173098Y016896D01*
X163971Y016896D02*
X163927Y016896D01*
X163927Y016577D02*
X163971Y016577D01*
X163198Y016577D02*
X154700Y016577D01*
X154799Y016896D02*
X163098Y016896D01*
X153971Y016896D02*
X153927Y016896D01*
X153927Y016577D02*
X153971Y016577D01*
X153198Y016577D02*
X144700Y016577D01*
X144799Y016896D02*
X153098Y016896D01*
X143971Y016896D02*
X143927Y016896D01*
X143927Y016577D02*
X143971Y016577D01*
X143198Y016577D02*
X134700Y016577D01*
X134799Y016896D02*
X143098Y016896D01*
X133971Y016896D02*
X133927Y016896D01*
X133927Y016577D02*
X133971Y016577D01*
X103971Y016577D02*
X103927Y016577D01*
X103927Y016896D02*
X103971Y016896D01*
X103198Y016577D02*
X094700Y016577D01*
X094799Y016896D02*
X103098Y016896D01*
X093971Y016896D02*
X093927Y016896D01*
X093927Y016577D02*
X093971Y016577D01*
X093198Y016577D02*
X084700Y016577D01*
X084799Y016896D02*
X093098Y016896D01*
X083971Y016896D02*
X083927Y016896D01*
X083927Y016577D02*
X083971Y016577D01*
X083198Y016577D02*
X074700Y016577D01*
X074799Y016896D02*
X083098Y016896D01*
X073971Y016896D02*
X073927Y016896D01*
X073927Y016577D02*
X073971Y016577D01*
X073198Y016577D02*
X064700Y016577D01*
X064799Y016896D02*
X073098Y016896D01*
X063971Y016896D02*
X063927Y016896D01*
X063927Y016577D02*
X063971Y016577D01*
X063198Y016577D02*
X054700Y016577D01*
X054799Y016896D02*
X063098Y016896D01*
X053971Y016896D02*
X053927Y016896D01*
X053927Y016577D02*
X053971Y016577D01*
X053198Y016577D02*
X044700Y016577D01*
X044799Y016896D02*
X053098Y016896D01*
X043971Y016896D02*
X043927Y016896D01*
X043927Y016577D02*
X043971Y016577D01*
X033949Y017895D02*
X023949Y017895D01*
X027699Y023110D02*
X027699Y026360D01*
X028098Y026360D01*
X028098Y026329D01*
X028927Y026329D01*
X028927Y026285D01*
X028971Y026285D01*
X028971Y025683D01*
X029565Y025683D01*
X029615Y025693D01*
X029663Y025713D01*
X029705Y025741D01*
X029741Y025777D01*
X029770Y025820D01*
X029789Y025867D01*
X029799Y025918D01*
X029799Y026285D01*
X028971Y026285D01*
X028971Y026329D01*
X029799Y026329D01*
X029799Y026360D01*
X038098Y026360D01*
X038098Y026329D01*
X038927Y026329D01*
X038927Y026285D01*
X038971Y026285D01*
X038971Y025683D01*
X039565Y025683D01*
X039615Y025693D01*
X039663Y025713D01*
X039705Y025741D01*
X039741Y025777D01*
X039770Y025820D01*
X039789Y025867D01*
X039799Y025918D01*
X039799Y026285D01*
X038971Y026285D01*
X038971Y026329D01*
X039799Y026329D01*
X039799Y026360D01*
X048098Y026360D01*
X048098Y026329D01*
X048927Y026329D01*
X048927Y026285D01*
X048971Y026285D01*
X048971Y025683D01*
X049565Y025683D01*
X049615Y025693D01*
X049663Y025713D01*
X049705Y025741D01*
X049741Y025777D01*
X049770Y025820D01*
X049789Y025867D01*
X049799Y025918D01*
X049799Y026285D01*
X048971Y026285D01*
X048971Y026329D01*
X049799Y026329D01*
X049799Y026360D01*
X058098Y026360D01*
X058098Y026329D01*
X058927Y026329D01*
X058927Y026285D01*
X058971Y026285D01*
X058971Y025683D01*
X059565Y025683D01*
X059615Y025693D01*
X059663Y025713D01*
X059705Y025741D01*
X059741Y025777D01*
X059770Y025820D01*
X059789Y025867D01*
X059799Y025918D01*
X059799Y026285D01*
X058971Y026285D01*
X058971Y026329D01*
X059799Y026329D01*
X059799Y026360D01*
X068098Y026360D01*
X068098Y026329D01*
X068927Y026329D01*
X068927Y026285D01*
X068971Y026285D01*
X068971Y025683D01*
X069565Y025683D01*
X069615Y025693D01*
X069663Y025713D01*
X069705Y025741D01*
X069741Y025777D01*
X069770Y025820D01*
X069789Y025867D01*
X069799Y025918D01*
X069799Y026285D01*
X068971Y026285D01*
X068971Y026329D01*
X069799Y026329D01*
X069799Y026360D01*
X078098Y026360D01*
X078098Y026329D01*
X078927Y026329D01*
X078927Y026285D01*
X078971Y026285D01*
X078971Y025683D01*
X079565Y025683D01*
X079615Y025693D01*
X079663Y025713D01*
X079705Y025741D01*
X079741Y025777D01*
X079770Y025820D01*
X079789Y025867D01*
X079799Y025918D01*
X079799Y026285D01*
X078971Y026285D01*
X078971Y026329D01*
X079799Y026329D01*
X079799Y026360D01*
X088098Y026360D01*
X088098Y026329D01*
X088927Y026329D01*
X088927Y026285D01*
X088971Y026285D01*
X088971Y025683D01*
X089565Y025683D01*
X089615Y025693D01*
X089663Y025713D01*
X089705Y025741D01*
X089741Y025777D01*
X089770Y025820D01*
X089789Y025867D01*
X089799Y025918D01*
X089799Y026285D01*
X088971Y026285D01*
X088971Y026329D01*
X089799Y026329D01*
X089799Y026360D01*
X098098Y026360D01*
X098098Y026329D01*
X098927Y026329D01*
X098927Y026285D01*
X098971Y026285D01*
X098971Y025683D01*
X099565Y025683D01*
X099615Y025693D01*
X099663Y025713D01*
X099705Y025741D01*
X099741Y025777D01*
X099770Y025820D01*
X099789Y025867D01*
X099799Y025918D01*
X099799Y026285D01*
X098971Y026285D01*
X098971Y026329D01*
X099799Y026329D01*
X099799Y026360D01*
X108098Y026360D01*
X108098Y026329D01*
X108927Y026329D01*
X108927Y026285D01*
X108971Y026285D01*
X108971Y025683D01*
X109565Y025683D01*
X109615Y025693D01*
X109663Y025713D01*
X109705Y025741D01*
X109741Y025777D01*
X109770Y025820D01*
X109789Y025867D01*
X109799Y025918D01*
X109799Y026285D01*
X108971Y026285D01*
X108971Y026329D01*
X109799Y026329D01*
X109799Y026360D01*
X118098Y026360D01*
X118098Y026329D01*
X118927Y026329D01*
X118927Y026285D01*
X118971Y026285D01*
X118971Y025683D01*
X119565Y025683D01*
X119615Y025693D01*
X119663Y025713D01*
X119705Y025741D01*
X119741Y025777D01*
X119770Y025820D01*
X119789Y025867D01*
X119799Y025918D01*
X119799Y026285D01*
X118971Y026285D01*
X118971Y026329D01*
X119799Y026329D01*
X119799Y026360D01*
X120199Y026360D01*
X120199Y023110D01*
X027699Y023110D01*
X027699Y023267D02*
X120199Y023267D01*
X120199Y023585D02*
X027699Y023585D01*
X027699Y023904D02*
X073402Y023904D01*
X073359Y023937D02*
X073452Y023866D01*
X073553Y023807D01*
X073661Y023762D01*
X073774Y023732D01*
X073890Y023717D01*
X073892Y023717D01*
X073892Y024553D01*
X073056Y024553D01*
X073056Y024551D01*
X073071Y024435D01*
X073101Y024322D01*
X073146Y024214D01*
X073205Y024113D01*
X073276Y024020D01*
X073359Y023937D01*
X073143Y024223D02*
X027699Y024223D01*
X027699Y024541D02*
X073057Y024541D01*
X073056Y024666D02*
X073892Y024666D01*
X073892Y024553D01*
X074006Y024553D01*
X074006Y024666D01*
X074842Y024666D01*
X074842Y024668D01*
X074827Y024785D01*
X074796Y024898D01*
X074752Y025006D01*
X074693Y025107D01*
X074622Y025200D01*
X074539Y025283D01*
X074446Y025354D01*
X074345Y025413D01*
X074237Y025457D01*
X074124Y025488D01*
X074008Y025503D01*
X074006Y025503D01*
X074006Y024667D01*
X073892Y024667D01*
X073892Y025503D01*
X073890Y025503D01*
X073774Y025488D01*
X073661Y025457D01*
X073553Y025413D01*
X073452Y025354D01*
X073359Y025283D01*
X073276Y025200D01*
X073205Y025107D01*
X073146Y025006D01*
X073101Y024898D01*
X073071Y024785D01*
X073056Y024668D01*
X073056Y024666D01*
X073091Y024860D02*
X027699Y024860D01*
X027699Y025178D02*
X073259Y025178D01*
X073892Y025178D02*
X074006Y025178D01*
X074006Y024860D02*
X073892Y024860D01*
X073892Y024541D02*
X074006Y024541D01*
X074006Y024553D02*
X074006Y023717D01*
X074008Y023717D01*
X074124Y023732D01*
X074237Y023762D01*
X074345Y023807D01*
X074446Y023866D01*
X074539Y023937D01*
X074622Y024020D01*
X074693Y024113D01*
X074752Y024214D01*
X074796Y024322D01*
X074827Y024435D01*
X074842Y024551D01*
X074842Y024553D01*
X074006Y024553D01*
X074006Y024223D02*
X073892Y024223D01*
X073892Y023904D02*
X074006Y023904D01*
X074496Y023904D02*
X120199Y023904D01*
X120199Y024223D02*
X074755Y024223D01*
X074841Y024541D02*
X120199Y024541D01*
X120199Y024860D02*
X074807Y024860D01*
X074639Y025178D02*
X120199Y025178D01*
X120199Y025497D02*
X074055Y025497D01*
X074006Y025497D02*
X073892Y025497D01*
X073843Y025497D02*
X027699Y025497D01*
X027699Y025815D02*
X028131Y025815D01*
X028128Y025820D02*
X028156Y025777D01*
X028193Y025741D01*
X028235Y025713D01*
X028283Y025693D01*
X028333Y025683D01*
X028927Y025683D01*
X028927Y026285D01*
X028098Y026285D01*
X028098Y025918D01*
X028108Y025867D01*
X028128Y025820D01*
X028098Y026134D02*
X027699Y026134D01*
X028927Y026134D02*
X028971Y026134D01*
X028971Y025815D02*
X028927Y025815D01*
X029767Y025815D02*
X038131Y025815D01*
X038128Y025820D02*
X038156Y025777D01*
X038193Y025741D01*
X038235Y025713D01*
X038283Y025693D01*
X038333Y025683D01*
X038927Y025683D01*
X038927Y026285D01*
X038098Y026285D01*
X038098Y025918D01*
X038108Y025867D01*
X038128Y025820D01*
X038098Y026134D02*
X029799Y026134D01*
X028949Y027055D02*
X038949Y027055D01*
X048949Y027055D01*
X058949Y027055D01*
X068949Y027055D01*
X068949Y028110D01*
X069449Y028610D01*
X073949Y028610D01*
X078449Y028610D01*
X078949Y028110D01*
X078949Y027055D01*
X088949Y027055D01*
X098949Y027055D01*
X108949Y027055D01*
X118949Y027055D01*
X118927Y026285D02*
X118098Y026285D01*
X118098Y025918D01*
X118108Y025867D01*
X118128Y025820D01*
X118156Y025777D01*
X118193Y025741D01*
X118235Y025713D01*
X118283Y025693D01*
X118333Y025683D01*
X118927Y025683D01*
X118927Y026285D01*
X118927Y026134D02*
X118971Y026134D01*
X118971Y025815D02*
X118927Y025815D01*
X118131Y025815D02*
X109767Y025815D01*
X109799Y026134D02*
X118098Y026134D01*
X119767Y025815D02*
X120199Y025815D01*
X120199Y026134D02*
X119799Y026134D01*
X127699Y026134D02*
X128098Y026134D01*
X128098Y026285D02*
X128098Y025918D01*
X128108Y025867D01*
X128128Y025820D01*
X128156Y025777D01*
X128193Y025741D01*
X128235Y025713D01*
X128283Y025693D01*
X128333Y025683D01*
X128927Y025683D01*
X128927Y026285D01*
X128971Y026285D01*
X128971Y025683D01*
X129565Y025683D01*
X129615Y025693D01*
X129663Y025713D01*
X129705Y025741D01*
X129741Y025777D01*
X129770Y025820D01*
X129789Y025867D01*
X129799Y025918D01*
X129799Y026285D01*
X128971Y026285D01*
X128971Y026329D01*
X129799Y026329D01*
X129799Y026360D01*
X138098Y026360D01*
X138098Y026329D01*
X138927Y026329D01*
X138927Y026285D01*
X138971Y026285D01*
X138971Y025683D01*
X139565Y025683D01*
X139615Y025693D01*
X139663Y025713D01*
X139705Y025741D01*
X139741Y025777D01*
X139770Y025820D01*
X139789Y025867D01*
X139799Y025918D01*
X139799Y026285D01*
X138971Y026285D01*
X138971Y026329D01*
X139799Y026329D01*
X139799Y026360D01*
X148098Y026360D01*
X148098Y026329D01*
X148927Y026329D01*
X148927Y026285D01*
X148971Y026285D01*
X148971Y025683D01*
X149565Y025683D01*
X149615Y025693D01*
X149663Y025713D01*
X149705Y025741D01*
X149741Y025777D01*
X149770Y025820D01*
X149789Y025867D01*
X149799Y025918D01*
X149799Y026285D01*
X148971Y026285D01*
X148971Y026329D01*
X149799Y026329D01*
X149799Y026360D01*
X158098Y026360D01*
X158098Y026329D01*
X158927Y026329D01*
X158927Y026285D01*
X158971Y026285D01*
X158971Y025683D01*
X159565Y025683D01*
X159615Y025693D01*
X159663Y025713D01*
X159705Y025741D01*
X159741Y025777D01*
X159770Y025820D01*
X159789Y025867D01*
X159799Y025918D01*
X159799Y026285D01*
X158971Y026285D01*
X158971Y026329D01*
X159799Y026329D01*
X159799Y026360D01*
X168098Y026360D01*
X168098Y026329D01*
X168927Y026329D01*
X168927Y026285D01*
X168971Y026285D01*
X168971Y025683D01*
X169565Y025683D01*
X169615Y025693D01*
X169663Y025713D01*
X169705Y025741D01*
X169741Y025777D01*
X169770Y025820D01*
X169789Y025867D01*
X169799Y025918D01*
X169799Y026285D01*
X168971Y026285D01*
X168971Y026329D01*
X169799Y026329D01*
X169799Y026360D01*
X178098Y026360D01*
X178098Y026329D01*
X178927Y026329D01*
X178927Y026285D01*
X178971Y026285D01*
X178971Y025683D01*
X179565Y025683D01*
X179615Y025693D01*
X179663Y025713D01*
X179705Y025741D01*
X179741Y025777D01*
X179770Y025820D01*
X179789Y025867D01*
X179799Y025918D01*
X179799Y026285D01*
X178971Y026285D01*
X178971Y026329D01*
X179799Y026329D01*
X179799Y026360D01*
X188098Y026360D01*
X188098Y026329D01*
X188927Y026329D01*
X188927Y026285D01*
X188971Y026285D01*
X188971Y025683D01*
X189565Y025683D01*
X189615Y025693D01*
X189663Y025713D01*
X189705Y025741D01*
X189741Y025777D01*
X189770Y025820D01*
X189789Y025867D01*
X189799Y025918D01*
X189799Y026285D01*
X188971Y026285D01*
X188971Y026329D01*
X189799Y026329D01*
X189799Y026360D01*
X198098Y026360D01*
X198098Y026329D01*
X198927Y026329D01*
X198927Y026285D01*
X198971Y026285D01*
X198971Y025683D01*
X199565Y025683D01*
X199615Y025693D01*
X199663Y025713D01*
X199705Y025741D01*
X199741Y025777D01*
X199770Y025820D01*
X199789Y025867D01*
X199799Y025918D01*
X199799Y026285D01*
X198971Y026285D01*
X198971Y026329D01*
X199799Y026329D01*
X199799Y026360D01*
X208098Y026360D01*
X208098Y026329D01*
X208927Y026329D01*
X208927Y026285D01*
X208971Y026285D01*
X208971Y025683D01*
X209565Y025683D01*
X209615Y025693D01*
X209663Y025713D01*
X209705Y025741D01*
X209741Y025777D01*
X209770Y025820D01*
X209789Y025867D01*
X209799Y025918D01*
X209799Y026285D01*
X208971Y026285D01*
X208971Y026329D01*
X209799Y026329D01*
X209799Y026360D01*
X218098Y026360D01*
X218098Y026329D01*
X218927Y026329D01*
X218927Y026285D01*
X218971Y026285D01*
X218971Y025683D01*
X219565Y025683D01*
X219615Y025693D01*
X219663Y025713D01*
X219705Y025741D01*
X219741Y025777D01*
X219770Y025820D01*
X219789Y025867D01*
X219799Y025918D01*
X219799Y026285D01*
X218971Y026285D01*
X218971Y026329D01*
X219799Y026329D01*
X219799Y026360D01*
X220199Y026360D01*
X220199Y023110D01*
X127699Y023110D01*
X127699Y026360D01*
X128098Y026360D01*
X128098Y026329D01*
X128927Y026329D01*
X128927Y026285D01*
X128098Y026285D01*
X128131Y025815D02*
X127699Y025815D01*
X127699Y025497D02*
X220199Y025497D01*
X220199Y025815D02*
X219767Y025815D01*
X219799Y026134D02*
X220199Y026134D01*
X218971Y026134D02*
X218927Y026134D01*
X218927Y026285D02*
X218927Y025683D01*
X218333Y025683D01*
X218283Y025693D01*
X218235Y025713D01*
X218193Y025741D01*
X218156Y025777D01*
X218128Y025820D01*
X218108Y025867D01*
X218098Y025918D01*
X218098Y026285D01*
X218927Y026285D01*
X218927Y025815D02*
X218971Y025815D01*
X218131Y025815D02*
X209767Y025815D01*
X209799Y026134D02*
X218098Y026134D01*
X218949Y027055D02*
X208949Y027055D01*
X198949Y027055D01*
X188949Y027055D01*
X178949Y027055D01*
X178949Y028110D01*
X178449Y028610D01*
X173949Y028610D01*
X169449Y028610D01*
X168949Y028110D01*
X168949Y027055D01*
X158949Y027055D01*
X148949Y027055D01*
X138949Y027055D01*
X128949Y027055D01*
X128927Y026134D02*
X128971Y026134D01*
X128971Y025815D02*
X128927Y025815D01*
X129767Y025815D02*
X138131Y025815D01*
X138128Y025820D02*
X138156Y025777D01*
X138193Y025741D01*
X138235Y025713D01*
X138283Y025693D01*
X138333Y025683D01*
X138927Y025683D01*
X138927Y026285D01*
X138098Y026285D01*
X138098Y025918D01*
X138108Y025867D01*
X138128Y025820D01*
X138098Y026134D02*
X129799Y026134D01*
X127699Y025178D02*
X220199Y025178D01*
X220199Y024860D02*
X174437Y024860D01*
X174446Y024854D02*
X174345Y024913D01*
X174237Y024957D01*
X174124Y024988D01*
X174008Y025003D01*
X174006Y025003D01*
X174006Y024167D01*
X173892Y024167D01*
X173892Y025003D01*
X173890Y025003D01*
X173774Y024988D01*
X173661Y024957D01*
X173553Y024913D01*
X173452Y024854D01*
X173359Y024783D01*
X173276Y024700D01*
X173205Y024607D01*
X173146Y024506D01*
X173101Y024398D01*
X173071Y024285D01*
X173056Y024168D01*
X173056Y024166D01*
X173892Y024166D01*
X173892Y024053D01*
X173056Y024053D01*
X173056Y024051D01*
X173071Y023935D01*
X173101Y023822D01*
X173146Y023714D01*
X173205Y023613D01*
X173276Y023520D01*
X173359Y023437D01*
X173452Y023366D01*
X173553Y023307D01*
X173661Y023262D01*
X173774Y023232D01*
X173890Y023217D01*
X173892Y023217D01*
X173892Y024053D01*
X174006Y024053D01*
X174006Y024166D01*
X174842Y024166D01*
X174842Y024168D01*
X174827Y024285D01*
X174796Y024398D01*
X174752Y024506D01*
X174693Y024607D01*
X174622Y024700D01*
X174539Y024783D01*
X174446Y024854D01*
X174731Y024541D02*
X220199Y024541D01*
X220199Y024223D02*
X174835Y024223D01*
X174842Y024053D02*
X174006Y024053D01*
X174006Y023217D01*
X174008Y023217D01*
X174124Y023232D01*
X174237Y023262D01*
X174345Y023307D01*
X174446Y023366D01*
X174539Y023437D01*
X174622Y023520D01*
X174693Y023613D01*
X174752Y023714D01*
X174796Y023822D01*
X174827Y023935D01*
X174842Y024051D01*
X174842Y024053D01*
X174818Y023904D02*
X220199Y023904D01*
X220199Y023585D02*
X174672Y023585D01*
X174247Y023267D02*
X220199Y023267D01*
X208927Y025683D02*
X208333Y025683D01*
X208283Y025693D01*
X208235Y025713D01*
X208193Y025741D01*
X208156Y025777D01*
X208128Y025820D01*
X208108Y025867D01*
X208098Y025918D01*
X208098Y026285D01*
X208927Y026285D01*
X208927Y025683D01*
X208927Y025815D02*
X208971Y025815D01*
X208971Y026134D02*
X208927Y026134D01*
X208098Y026134D02*
X199799Y026134D01*
X199767Y025815D02*
X208131Y025815D01*
X198971Y025815D02*
X198927Y025815D01*
X198927Y025683D02*
X198927Y026285D01*
X198098Y026285D01*
X198098Y025918D01*
X198108Y025867D01*
X198128Y025820D01*
X198156Y025777D01*
X198193Y025741D01*
X198235Y025713D01*
X198283Y025693D01*
X198333Y025683D01*
X198927Y025683D01*
X198131Y025815D02*
X189767Y025815D01*
X189799Y026134D02*
X198098Y026134D01*
X198927Y026134D02*
X198971Y026134D01*
X188971Y026134D02*
X188927Y026134D01*
X188927Y026285D02*
X188927Y025683D01*
X188333Y025683D01*
X188283Y025693D01*
X188235Y025713D01*
X188193Y025741D01*
X188156Y025777D01*
X188128Y025820D01*
X188108Y025867D01*
X188098Y025918D01*
X188098Y026285D01*
X188927Y026285D01*
X188927Y025815D02*
X188971Y025815D01*
X188131Y025815D02*
X179767Y025815D01*
X179799Y026134D02*
X188098Y026134D01*
X178971Y026134D02*
X178927Y026134D01*
X178927Y026285D02*
X178927Y025683D01*
X178333Y025683D01*
X178283Y025693D01*
X178235Y025713D01*
X178193Y025741D01*
X178156Y025777D01*
X178128Y025820D01*
X178108Y025867D01*
X178098Y025918D01*
X178098Y026285D01*
X178927Y026285D01*
X178927Y025815D02*
X178971Y025815D01*
X178131Y025815D02*
X169767Y025815D01*
X169799Y026134D02*
X178098Y026134D01*
X174006Y024860D02*
X173892Y024860D01*
X173892Y024541D02*
X174006Y024541D01*
X174006Y024223D02*
X173892Y024223D01*
X173892Y023904D02*
X174006Y023904D01*
X174006Y023585D02*
X173892Y023585D01*
X173892Y023267D02*
X174006Y023267D01*
X173651Y023267D02*
X127699Y023267D01*
X127699Y023585D02*
X173226Y023585D01*
X173080Y023904D02*
X127699Y023904D01*
X127699Y024223D02*
X173063Y024223D01*
X173167Y024541D02*
X127699Y024541D01*
X127699Y024860D02*
X173461Y024860D01*
X168927Y025683D02*
X168927Y026285D01*
X168098Y026285D01*
X168098Y025918D01*
X168108Y025867D01*
X168128Y025820D01*
X168156Y025777D01*
X168193Y025741D01*
X168235Y025713D01*
X168283Y025693D01*
X168333Y025683D01*
X168927Y025683D01*
X168927Y025815D02*
X168971Y025815D01*
X168971Y026134D02*
X168927Y026134D01*
X168098Y026134D02*
X159799Y026134D01*
X159767Y025815D02*
X168131Y025815D01*
X158971Y025815D02*
X158927Y025815D01*
X158927Y025683D02*
X158927Y026285D01*
X158098Y026285D01*
X158098Y025918D01*
X158108Y025867D01*
X158128Y025820D01*
X158156Y025777D01*
X158193Y025741D01*
X158235Y025713D01*
X158283Y025693D01*
X158333Y025683D01*
X158927Y025683D01*
X158131Y025815D02*
X149767Y025815D01*
X149799Y026134D02*
X158098Y026134D01*
X158927Y026134D02*
X158971Y026134D01*
X148971Y026134D02*
X148927Y026134D01*
X148927Y026285D02*
X148927Y025683D01*
X148333Y025683D01*
X148283Y025693D01*
X148235Y025713D01*
X148193Y025741D01*
X148156Y025777D01*
X148128Y025820D01*
X148108Y025867D01*
X148098Y025918D01*
X148098Y026285D01*
X148927Y026285D01*
X148927Y025815D02*
X148971Y025815D01*
X148131Y025815D02*
X139767Y025815D01*
X139799Y026134D02*
X148098Y026134D01*
X138971Y026134D02*
X138927Y026134D01*
X138927Y025815D02*
X138971Y025815D01*
X108971Y025815D02*
X108927Y025815D01*
X108927Y025683D02*
X108927Y026285D01*
X108098Y026285D01*
X108098Y025918D01*
X108108Y025867D01*
X108128Y025820D01*
X108156Y025777D01*
X108193Y025741D01*
X108235Y025713D01*
X108283Y025693D01*
X108333Y025683D01*
X108927Y025683D01*
X108131Y025815D02*
X099767Y025815D01*
X099799Y026134D02*
X108098Y026134D01*
X108927Y026134D02*
X108971Y026134D01*
X098971Y026134D02*
X098927Y026134D01*
X098927Y026285D02*
X098927Y025683D01*
X098333Y025683D01*
X098283Y025693D01*
X098235Y025713D01*
X098193Y025741D01*
X098156Y025777D01*
X098128Y025820D01*
X098108Y025867D01*
X098098Y025918D01*
X098098Y026285D01*
X098927Y026285D01*
X098927Y025815D02*
X098971Y025815D01*
X098131Y025815D02*
X089767Y025815D01*
X089799Y026134D02*
X098098Y026134D01*
X088971Y026134D02*
X088927Y026134D01*
X088927Y026285D02*
X088927Y025683D01*
X088333Y025683D01*
X088283Y025693D01*
X088235Y025713D01*
X088193Y025741D01*
X088156Y025777D01*
X088128Y025820D01*
X088108Y025867D01*
X088098Y025918D01*
X088098Y026285D01*
X088927Y026285D01*
X088927Y025815D02*
X088971Y025815D01*
X088131Y025815D02*
X079767Y025815D01*
X079799Y026134D02*
X088098Y026134D01*
X078971Y026134D02*
X078927Y026134D01*
X078927Y026285D02*
X078927Y025683D01*
X078333Y025683D01*
X078283Y025693D01*
X078235Y025713D01*
X078193Y025741D01*
X078156Y025777D01*
X078128Y025820D01*
X078108Y025867D01*
X078098Y025918D01*
X078098Y026285D01*
X078927Y026285D01*
X078927Y025815D02*
X078971Y025815D01*
X078131Y025815D02*
X069767Y025815D01*
X069799Y026134D02*
X078098Y026134D01*
X068971Y026134D02*
X068927Y026134D01*
X068927Y026285D02*
X068927Y025683D01*
X068333Y025683D01*
X068283Y025693D01*
X068235Y025713D01*
X068193Y025741D01*
X068156Y025777D01*
X068128Y025820D01*
X068108Y025867D01*
X068098Y025918D01*
X068098Y026285D01*
X068927Y026285D01*
X068927Y025815D02*
X068971Y025815D01*
X068131Y025815D02*
X059767Y025815D01*
X059799Y026134D02*
X068098Y026134D01*
X058971Y026134D02*
X058927Y026134D01*
X058927Y026285D02*
X058927Y025683D01*
X058333Y025683D01*
X058283Y025693D01*
X058235Y025713D01*
X058193Y025741D01*
X058156Y025777D01*
X058128Y025820D01*
X058108Y025867D01*
X058098Y025918D01*
X058098Y026285D01*
X058927Y026285D01*
X058927Y025815D02*
X058971Y025815D01*
X058131Y025815D02*
X049767Y025815D01*
X049799Y026134D02*
X058098Y026134D01*
X048971Y026134D02*
X048927Y026134D01*
X048927Y026285D02*
X048927Y025683D01*
X048333Y025683D01*
X048283Y025693D01*
X048235Y025713D01*
X048193Y025741D01*
X048156Y025777D01*
X048128Y025820D01*
X048108Y025867D01*
X048098Y025918D01*
X048098Y026285D01*
X048927Y026285D01*
X048927Y025815D02*
X048971Y025815D01*
X048131Y025815D02*
X039767Y025815D01*
X039799Y026134D02*
X048098Y026134D01*
X038971Y026134D02*
X038927Y026134D01*
X038927Y025815D02*
X038971Y025815D01*
X068949Y010610D02*
X069449Y011110D01*
X073949Y011110D01*
X078449Y011110D01*
X078949Y010610D01*
X078949Y009235D01*
X088949Y009235D01*
X098949Y009235D01*
X108949Y009235D01*
X118949Y009235D01*
X118927Y008295D02*
X118971Y008295D01*
X118971Y007977D02*
X118927Y007977D01*
X118143Y007977D02*
X109754Y007977D01*
X109799Y008295D02*
X118098Y008295D01*
X119754Y007977D02*
X120199Y007977D01*
X120199Y008295D02*
X119799Y008295D01*
X108971Y008295D02*
X108927Y008295D01*
X108927Y007977D02*
X108971Y007977D01*
X108143Y007977D02*
X099754Y007977D01*
X099799Y008295D02*
X108098Y008295D01*
X098971Y008295D02*
X098927Y008295D01*
X098927Y007977D02*
X098971Y007977D01*
X098143Y007977D02*
X089754Y007977D01*
X089799Y008295D02*
X098098Y008295D01*
X088971Y008295D02*
X088927Y008295D01*
X088927Y007977D02*
X088971Y007977D01*
X088143Y007977D02*
X079754Y007977D01*
X079799Y008295D02*
X088098Y008295D01*
X078971Y008295D02*
X078927Y008295D01*
X078927Y007977D02*
X078971Y007977D01*
X078143Y007977D02*
X069754Y007977D01*
X069799Y008295D02*
X078098Y008295D01*
X068971Y008295D02*
X068927Y008295D01*
X068927Y007977D02*
X068971Y007977D01*
X068143Y007977D02*
X059754Y007977D01*
X059799Y008295D02*
X068098Y008295D01*
X068949Y009235D02*
X068949Y010610D01*
X068949Y009235D02*
X058949Y009235D01*
X048949Y009235D01*
X038949Y009235D01*
X028949Y009235D01*
X028927Y008295D02*
X028971Y008295D01*
X028971Y007977D02*
X028927Y007977D01*
X029754Y007977D02*
X038143Y007977D01*
X038098Y008295D02*
X029799Y008295D01*
X038927Y008295D02*
X038971Y008295D01*
X038971Y007977D02*
X038927Y007977D01*
X039754Y007977D02*
X048143Y007977D01*
X048098Y008295D02*
X039799Y008295D01*
X048927Y008295D02*
X048971Y008295D01*
X048971Y007977D02*
X048927Y007977D01*
X049754Y007977D02*
X058143Y007977D01*
X058098Y008295D02*
X049799Y008295D01*
X058927Y008295D02*
X058971Y008295D01*
X058971Y007977D02*
X058927Y007977D01*
M02*
