G75*
G70*
%OFA0B0*%
%FSLAX24Y24*%
%IPPOS*%
%LPD*%
%AMOC8*
5,1,8,0,0,1.08239X$1,22.5*
%
%ADD10R,0.1181X0.0728*%
%ADD11R,0.1181X0.0374*%
D10*
X028949Y008487D03*
X038949Y008487D03*
X048949Y008487D03*
X058949Y008487D03*
X068949Y008487D03*
X078949Y008487D03*
X088949Y008487D03*
X098949Y008487D03*
X108949Y008487D03*
X118949Y008487D03*
X128949Y008487D03*
X138949Y008487D03*
X148949Y008487D03*
X158949Y008487D03*
X168949Y008487D03*
X178949Y008487D03*
X188949Y008487D03*
X198949Y008487D03*
X208949Y008487D03*
X218949Y008487D03*
X213949Y017147D03*
X203949Y017147D03*
X193949Y017147D03*
X183949Y017147D03*
X173949Y017147D03*
X163949Y017147D03*
X153949Y017147D03*
X143949Y017147D03*
X133949Y017147D03*
X123949Y017147D03*
X113949Y017147D03*
X103949Y017147D03*
X093949Y017147D03*
X083949Y017147D03*
X073949Y017147D03*
X063949Y017147D03*
X053949Y017147D03*
X043949Y017147D03*
X033949Y017147D03*
X023949Y017147D03*
X028949Y026307D03*
X038949Y026307D03*
X048949Y026307D03*
X058949Y026307D03*
X068949Y026307D03*
X078949Y026307D03*
X088949Y026307D03*
X098949Y026307D03*
X108949Y026307D03*
X118949Y026307D03*
X128949Y026307D03*
X138949Y026307D03*
X148949Y026307D03*
X158949Y026307D03*
X168949Y026307D03*
X178949Y026307D03*
X188949Y026307D03*
X198949Y026307D03*
X208949Y026307D03*
X218949Y026307D03*
D11*
X218949Y027055D03*
X208949Y027055D03*
X198949Y027055D03*
X188949Y027055D03*
X178949Y027055D03*
X168949Y027055D03*
X158949Y027055D03*
X148949Y027055D03*
X138949Y027055D03*
X128949Y027055D03*
X118949Y027055D03*
X108949Y027055D03*
X098949Y027055D03*
X088949Y027055D03*
X078949Y027055D03*
X068949Y027055D03*
X058949Y027055D03*
X048949Y027055D03*
X038949Y027055D03*
X028949Y027055D03*
X033949Y017895D03*
X023949Y017895D03*
X043949Y017895D03*
X053949Y017895D03*
X063949Y017895D03*
X073949Y017895D03*
X083949Y017895D03*
X093949Y017895D03*
X103949Y017895D03*
X113949Y017895D03*
X123949Y017895D03*
X133949Y017895D03*
X143949Y017895D03*
X153949Y017895D03*
X163949Y017895D03*
X173949Y017895D03*
X183949Y017895D03*
X193949Y017895D03*
X203949Y017895D03*
X213949Y017895D03*
X218949Y009235D03*
X208949Y009235D03*
X198949Y009235D03*
X188949Y009235D03*
X178949Y009235D03*
X168949Y009235D03*
X158949Y009235D03*
X148949Y009235D03*
X138949Y009235D03*
X128949Y009235D03*
X118949Y009235D03*
X108949Y009235D03*
X098949Y009235D03*
X088949Y009235D03*
X078949Y009235D03*
X068949Y009235D03*
X058949Y009235D03*
X048949Y009235D03*
X038949Y009235D03*
X028949Y009235D03*
M02*
